<?xml version="1.0" encoding="utf-8"?>
<!-- Generator: Adobe Illustrator 16.0.0, SVG Export Plug-In . SVG Version: 6.00 Build 0)  -->
<!DOCTYPE svg PUBLIC "-//W3C//DTD SVG 1.1//EN" "http://www.w3.org/Graphics/SVG/1.1/DTD/svg11.dtd">
<svg version="1.1" id="Capa_1" xmlns="http://www.w3.org/2000/svg" xmlns:xlink="http://www.w3.org/1999/xlink" x="0px" y="0px"
	 width="433px" height="396.917px" viewBox="96 18.042 433 396.917" enable-background="new 96 18.042 433 396.917"
	 xml:space="preserve">
<g>
	<path fill="#FFFFFF" d="M391.984,327.558l-68.941-34.468c-6.502-3.254-10.543-9.793-10.543-17.066v-24.4
		c1.652-2.02,3.392-4.322,5.189-6.863c8.941-12.629,16.107-26.687,21.317-41.849c10.183-4.669,16.793-14.736,16.793-26.103v-28.867
		c0-6.949-2.598-13.683-7.216-18.943V90.612c0.403-3.969,1.991-27.596-15.098-47.088c-14.823-16.909-38.876-25.482-71.503-25.482
		s-56.68,8.574-71.503,25.475c-17.089,19.492-15.501,43.127-15.097,47.089v38.385c-4.619,5.261-7.217,11.994-7.217,18.944v28.867
		c0,8.783,3.991,16.974,10.804,22.437c6.61,26.174,20.445,45.898,25.28,52.227v23.88c0,6.985-3.811,13.394-9.938,16.743
		l-64.38,35.116C108.997,338.635,96,360.53,96,384.374v30.584h331.967v-29.177C427.967,360.963,414.176,338.656,391.984,327.558z"/>
	<path fill="#FFFFFF" d="M496.287,335.763l-70.168-30.382c-1.66-0.83-3.5-2.858-5.08-5.564l47.088-0.036
		c0,0,2.721,0.267,6.943,0.267c7.743,0,19.037-0.88,28.866-5.102c5.896-2.541,10.284-7.557,12.045-13.762
		c1.775-6.265,0.649-12.896-3.074-18.209c-13.459-19.152-44.874-69.2-45.855-119.962c-0.021-0.873-2.864-87.199-88.115-87.899
		c-8.565,0.072-16.663,1.125-24.335,2.98c5.717,15.112,5.189,28.636,4.8,33.023v34.156c4.677,6.654,7.216,14.556,7.216,22.667
		v28.867c0,13.762-7.245,26.5-18.813,33.644c-5.397,14.592-12.542,28.224-21.282,40.565c-1.082,1.537-2.15,2.987-3.196,4.358v20.64
		c0,3.189,1.703,5.954,4.554,7.375l68.94,34.468c25.887,12.946,41.965,38.963,41.965,67.908v29.191H529v-26.68
		C529,365.965,516.602,345.916,496.287,335.763z"/>
</g>
</svg>
