<?xml version="1.0" encoding="utf-8"?>
<!-- Generator: Adobe Illustrator 16.0.0, SVG Export Plug-In . SVG Version: 6.00 Build 0)  -->
<!DOCTYPE svg PUBLIC "-//W3C//DTD SVG 1.1//EN" "http://www.w3.org/Graphics/SVG/1.1/DTD/svg11.dtd">
<svg version="1.1" id="Capa_1" xmlns="http://www.w3.org/2000/svg" xmlns:xlink="http://www.w3.org/1999/xlink" x="0px" y="0px"
	 width="331.967px" height="433px" viewBox="146.517 0 331.967 433" enable-background="new 146.517 0 331.967 433"
	 xml:space="preserve">
<path fill="#FFFFFF" d="M442.501,309.516l-68.94-34.467c-6.502-3.255-10.544-9.793-10.544-17.067v-24.399
	c1.653-2.021,3.392-4.322,5.188-6.863c8.941-12.629,16.107-26.687,21.318-41.85c10.183-4.669,16.793-14.736,16.793-26.103V129.9
	c0-6.95-2.598-13.683-7.217-18.944V72.571c0.404-3.969,1.992-27.597-15.097-47.089C369.18,8.573,345.127,0,312.5,0
	c-32.626,0-56.68,8.573-71.503,25.475c-17.089,19.492-15.501,43.127-15.097,47.096v38.385c-4.619,5.261-7.217,11.994-7.217,18.944
	v28.867c0,8.783,3.991,16.974,10.804,22.437c6.61,26.175,20.445,45.898,25.28,52.227v23.881c0,6.985-3.811,13.395-9.938,16.742
	l-64.38,35.116c-20.936,11.424-33.933,33.319-33.933,57.163V389.7c0,34.25,108.575,43.3,165.983,43.3
	c57.408,0,165.983-9.05,165.983-43.3v-21.961C478.483,342.929,464.692,320.615,442.501,309.516z"/>
</svg>
