<?xml version="1.0" encoding="utf-8"?>
<!-- Generator: Adobe Illustrator 16.0.0, SVG Export Plug-In . SVG Version: 6.00 Build 0)  -->
<!DOCTYPE svg PUBLIC "-//W3C//DTD SVG 1.1//EN" "http://www.w3.org/Graphics/SVG/1.1/DTD/svg11.dtd">
<svg version="1.1" id="Capa_1" xmlns="http://www.w3.org/2000/svg" xmlns:xlink="http://www.w3.org/1999/xlink" x="0px" y="0px"
	 width="433.001px" height="433px" viewBox="141 0 433.001 433" enable-background="new 141 0 433.001 433" xml:space="preserve">
<g>
	<g>
		<path fill="#FFFFFF" d="M495.086,323.914l-68.074-17.022l-3.927-15.726c46.964-7.907,71.13-21.98,72.196-22.602
			c2.522-1.476,4.086-4.159,4.3-7.073c0.196-2.914-1.103-5.774-3.394-7.605c-0.32-0.248-32.073-26.475-32.073-117.346
			c0-76.638-17.929-115.499-53.307-115.499h-5.243C392.807,8.708,383.23,3.271,357.5,3.271
			c-33.388,0-106.614,33.566-106.614,133.268c0,90.872-31.753,117.098-31.984,117.275c-2.362,1.776-3.696,4.604-3.554,7.554
			c0.16,2.967,1.759,5.632,4.3,7.16c1.066,0.64,25.001,14.782,72.248,22.673l-3.927,15.689l-68.072,17.023
			c-44.53,11.142-75.625,50.979-75.625,96.93c0,4.903,3.98,8.885,8.885,8.885h408.688c4.903,0,8.885-4.016,8.885-8.92
			C570.729,374.894,539.634,335.056,495.086,323.914z"/>
	</g>
</g>
</svg>
